<svg width="11" height="13" viewBox="0 0 11 13" fill="none" xmlns="http://www.w3.org/2000/svg">
<path d="M8.03988 8.81348V12.4824C8.03988 12.785 7.69947 12.9363 7.47252 12.7472L6.18651 11.6881C6.18651 11.6881 6.14869 11.6881 6.14869 11.6503C6.03521 11.5746 5.92174 11.5368 5.80827 11.5368C5.65698 11.5368 5.5435 11.5746 5.43003 11.6881L4.14402 12.785C3.91708 12.9741 3.57666 12.8228 3.57666 12.5202V8.8513H8.03988V8.81348Z" fill="#F45170"/>
<path d="M8.0402 8.81348V12.4824C8.0402 12.785 7.69979 12.9363 7.47285 12.7472L6.18683 11.6881C6.18683 11.6881 6.14901 11.6881 6.14901 11.6503C6.03554 11.5746 5.92207 11.5368 5.80859 11.5368V8.81348H8.0402Z" fill="#E93565"/>
<path d="M8.03988 9.68262V10.25C7.69947 10.3256 7.2834 10.2122 6.98081 10.2878C6.60257 10.4013 6.22433 10.8173 5.80827 10.8173C5.39221 10.8173 5.01397 10.4013 4.63573 10.2878C4.29531 10.2122 3.87925 10.3256 3.57666 10.25V9.68262H8.03988Z" fill="#CC104A"/>
<path d="M10.1582 6.8084C10.0447 7.22446 10.2338 7.71617 10.0447 8.09441C9.81778 8.47265 9.28825 8.5483 8.98566 8.85089C8.68307 9.15348 8.60742 9.68302 8.22918 9.90996C7.88876 10.0991 7.35923 9.90996 6.94317 10.0234C6.56493 10.1369 6.18669 10.553 5.77062 10.553C5.35456 10.553 4.97632 10.1369 4.59808 10.0234C4.18202 9.90996 3.69031 10.0991 3.31207 9.90996C2.97165 9.72084 2.85818 9.15348 2.55559 8.85089C2.253 8.5483 1.72347 8.47265 1.49652 8.09441C1.3074 7.754 1.49652 7.22446 1.38305 6.8084C1.26958 6.43016 0.853516 6.05192 0.853516 5.63586C0.853516 5.2198 1.26958 4.84156 1.38305 4.46332C1.49652 4.04725 1.3074 3.55554 1.49652 3.1773C1.68564 2.83689 2.253 2.72342 2.55559 2.42083C2.85818 2.11823 2.93383 1.5887 3.31207 1.36176C3.65248 1.17264 4.18202 1.36176 4.59808 1.24828C4.97632 1.13481 5.35456 0.71875 5.77062 0.71875C6.18669 0.71875 6.56493 1.13481 6.94317 1.24828C7.35923 1.36176 7.85094 1.17264 8.22918 1.36176C8.56959 1.55088 8.68307 2.11823 8.98566 2.42083C9.28825 2.72342 9.81778 2.79907 10.0447 3.1773C10.2338 3.51772 10.0447 4.04725 10.1582 4.46332C10.2717 4.84156 10.6877 5.2198 10.6877 5.63586C10.6877 6.05192 10.2717 6.43016 10.1582 6.8084Z" fill="#F9BE48"/>
<g opacity="0.4">
<path d="M9.47749 5.63572C9.47749 7.64038 7.85106 9.30464 5.80857 9.30464C3.8039 9.30464 2.13965 7.67821 2.13965 5.63572C2.13965 3.63105 3.76608 1.9668 5.80857 1.9668C7.81323 1.9668 9.47749 3.63105 9.47749 5.63572Z" fill="white"/>
</g>
<path d="M9.09943 5.63541C9.09943 7.45095 7.62429 8.92609 5.80875 8.92609C3.9932 8.92609 2.51807 7.45095 2.51807 5.63541C2.51807 3.81986 3.9932 2.34473 5.80875 2.34473C7.62429 2.34473 9.09943 3.81986 9.09943 5.63541Z" fill="#F3A250"/>
<path d="M9.0993 5.86204C8.98582 4.12214 7.54852 2.76047 5.80862 2.76047C4.06872 2.76047 2.63141 4.12214 2.51794 5.86204C2.40446 3.89519 3.99307 2.30659 5.80862 2.34441C7.66199 2.38224 9.21277 3.85737 9.0993 5.86204Z" fill="#EF7B56"/>
<path d="M6.86766 6.12709L7.05678 7.29964C7.0946 7.48875 6.90548 7.60223 6.75418 7.52658L5.73294 6.99704C5.65729 6.95922 5.58164 6.95922 5.54382 6.99704L4.52257 7.52658C4.37128 7.60223 4.18216 7.48875 4.21998 7.29964L4.4091 6.12709C4.4091 6.05145 4.4091 5.9758 4.33345 5.93797L3.50133 5.10585C3.38786 4.99238 3.42568 4.76543 3.6148 4.72761L4.78734 4.53849C4.86299 4.53849 4.90081 4.50067 4.93864 4.42502L5.43035 3.4416C5.506 3.2903 5.73294 3.2903 5.80859 3.4416L6.33812 4.50067C6.37594 4.57631 6.41377 4.61414 6.48942 4.61414L7.66196 4.80326C7.85108 4.84108 7.92673 5.0302 7.77543 5.1815L6.9433 5.93797C6.90548 6.01362 6.86766 6.05145 6.86766 6.12709Z" fill="#EF7B56"/>
<path d="M7.05685 6.31602L7.24597 7.48856C7.28379 7.67768 7.09467 7.79116 6.94337 7.71551L5.92213 7.18597C5.84648 7.14815 5.77083 7.14815 5.73301 7.18597L4.67394 7.71551C4.52264 7.79116 4.33353 7.67768 4.37135 7.48856L4.56047 6.31602C4.56047 6.24038 4.56047 6.16473 4.48482 6.1269L3.6527 5.29478C3.53922 5.18131 3.57705 4.95436 3.76617 4.91654L4.93871 4.72742C5.01436 4.72742 5.05218 4.6896 5.09 4.61395L5.61954 3.55488C5.69519 3.40358 5.92213 3.40358 5.99778 3.55488L6.52731 4.61395C6.56514 4.6896 6.60296 4.72742 6.67861 4.72742L7.85115 4.91654C8.04027 4.95436 8.11592 5.14348 7.96462 5.29478L7.13249 6.1269C7.05685 6.16473 7.05685 6.24038 7.05685 6.31602Z" fill="#F9CF6B"/>
<g opacity="0.5">
<path d="M3.87983 5.33222C3.76636 5.21875 3.84201 5.02963 3.9933 4.99181L5.01455 4.84051C5.09019 4.84051 5.12802 4.80269 5.16584 4.72704L5.61973 3.78144C5.69538 3.63014 5.8845 3.63014 5.96014 3.78144L6.41403 4.72704C6.45186 4.80269 6.48968 4.84051 6.56533 4.84051L7.58657 4.99181C7.73787 5.02963 7.81352 5.21875 7.70004 5.33222C7.70004 5.33222 7.05704 6.05088 5.7332 6.05088C4.74978 6.05088 3.87983 5.33222 3.87983 5.33222Z" fill="white"/>
</g>
<g opacity="0.7">
<path d="M5.50616 4.80328C5.31704 4.72763 5.61964 3.93333 5.80876 4.00898C5.92223 4.0468 5.73311 4.87893 5.50616 4.80328Z" fill="white"/>
</g>
<path d="M4.1444 3.21473C4.03093 3.21473 3.95528 3.29038 3.87963 3.36603C3.91745 3.40385 4.29569 3.70644 4.25787 3.74427C4.22005 3.78209 3.84181 3.51733 3.80398 3.4795C3.76616 3.55515 3.72833 3.66862 3.76616 3.74427C3.87963 4.68987 3.72833 4.72769 3.53922 3.78209C3.50139 3.66862 3.46357 3.59297 3.38792 3.51733C3.3501 3.55515 3.0475 3.93339 3.00968 3.89556C2.97186 3.85774 3.23662 3.4795 3.27445 3.44168C3.1988 3.40385 3.08533 3.40385 3.00968 3.40385C2.02626 3.4795 1.98843 3.36603 2.97186 3.17691C3.08533 3.13909 3.16098 3.10126 3.23662 3.02561C3.23662 3.02561 3.23662 3.02561 3.1988 2.98779C2.66927 2.57173 2.74491 2.5339 3.27445 2.87432H3.31227C3.3501 2.79867 3.38792 2.6852 3.3501 2.60955C3.23662 1.62613 3.38792 1.62613 3.57704 2.57173C3.57704 2.6852 3.65269 2.76085 3.72833 2.83649C3.72833 2.83649 3.72833 2.83649 3.76616 2.79867C4.18222 2.26914 4.22005 2.34478 3.87963 2.87432V2.91214C3.91745 2.98779 4.03093 3.02561 4.10657 3.02561C5.09 2.91214 5.09 3.02561 4.1444 3.21473Z" fill="white"/>
<g opacity="0.5">
<path d="M4.14442 11.3849C4.14442 11.9145 4.1066 11.9523 4.03095 11.9523C3.99313 11.9523 3.91748 11.9145 3.91748 11.3849C3.91748 10.8554 3.9553 10.7041 4.03095 10.7041C4.1066 10.7041 4.14442 10.8554 4.14442 11.3849Z" fill="white"/>
</g>
</svg>
