<svg width="22" height="22" viewBox="0 0 22 22" fill="none" xmlns="http://www.w3.org/2000/svg">
<g opacity="0.4">
<path d="M18.6882 8.22547L18.6551 8.18057L18.6485 8.16742L15.636 3.69531L12.6234 8.16747L12.6171 8.18001L12.5836 8.22552C12.1002 8.88019 11.8447 9.65797 11.8447 10.4748C11.8447 12.5654 13.5455 14.266 15.6359 14.266C17.7263 14.266 19.4271 12.5653 19.4271 10.4748C19.4272 9.65793 19.1716 8.88006 18.6882 8.22547Z" fill="white"/>
<path d="M15.6341 15.558C12.8313 15.558 10.5512 13.2778 10.5512 10.4751C10.5512 9.3856 10.8906 8.34743 11.5329 7.47181L13.5132 4.53192L10.4603 0L4.09937 9.44253C3.09927 10.8035 2.5708 12.4172 2.5708 14.1105C2.5708 18.4608 6.11002 22 10.4603 22C14.5823 22 17.9755 18.8224 18.3204 14.7882C17.5405 15.2758 16.6197 15.558 15.6341 15.558Z" fill="white"/>
</g>
</svg>
