<svg width="29" height="30" viewBox="0 0 29 30" fill="none" xmlns="http://www.w3.org/2000/svg">
<path d="M14.0625 0.9375C11.2812 0.9375 8.56237 1.76225 6.2498 3.30746C3.93723 4.85267 2.13481 7.04893 1.07045 9.61851C0.0060932 12.1881 -0.272391 15.0156 0.270213 17.7435C0.812818 20.4713 2.15214 22.977 4.11882 24.9437C6.08549 26.9104 8.59119 28.2497 11.319 28.7923C14.0469 29.3349 16.8744 29.0564 19.444 27.9921C22.0136 26.9277 24.2098 25.1253 25.755 22.8127C27.3003 20.5001 28.125 17.7813 28.125 15C28.1208 11.2717 26.6379 7.69729 24.0015 5.06097C21.3652 2.42465 17.7908 0.941718 14.0625 0.9375ZM17.8125 9.375C18.1833 9.375 18.5459 9.48497 18.8542 9.69099C19.1625 9.89702 19.4029 10.1899 19.5448 10.5325C19.6867 10.8751 19.7238 11.2521 19.6515 11.6158C19.5791 11.9795 19.4006 12.3136 19.1383 12.5758C18.8761 12.838 18.542 13.0166 18.1783 13.089C17.8146 13.1613 17.4376 13.1242 17.095 12.9823C16.7524 12.8404 16.4595 12.6 16.2535 12.2917C16.0475 11.9834 15.9375 11.6208 15.9375 11.25C15.9375 10.7527 16.135 10.2758 16.4867 9.92418C16.8383 9.57254 17.3152 9.375 17.8125 9.375ZM10.3125 9.375C10.6833 9.375 11.0459 9.48497 11.3542 9.69099C11.6625 9.89702 11.9029 10.1899 12.0448 10.5325C12.1867 10.8751 12.2238 11.2521 12.1515 11.6158C12.0791 11.9795 11.9006 12.3136 11.6383 12.5758C11.3761 12.838 11.042 13.0166 10.6783 13.089C10.3146 13.1613 9.93759 13.1242 9.59497 12.9823C9.25236 12.8404 8.95953 12.6 8.7535 12.2917C8.54747 11.9834 8.43751 11.6208 8.43751 11.25C8.43751 10.7527 8.63505 10.2758 8.98668 9.92418C9.33831 9.57254 9.81522 9.375 10.3125 9.375ZM21.375 19.2188C20.6346 20.5018 19.5694 21.5672 18.2866 22.308C17.0038 23.0488 15.5485 23.4388 14.0672 23.4388C12.5859 23.4388 11.1306 23.0488 9.84782 22.308C8.56501 21.5672 7.49983 20.5018 6.75938 19.2188C6.69336 19.112 6.64943 18.9931 6.63021 18.8691C6.61098 18.7451 6.61685 18.6185 6.64747 18.4968C6.67809 18.3751 6.73283 18.2608 6.80844 18.1606C6.88406 18.0605 6.97901 17.9765 7.08768 17.9137C7.19634 17.851 7.31651 17.8106 7.44104 17.7952C7.56558 17.7797 7.69196 17.7894 7.81268 17.8237C7.9334 17.8579 8.04602 17.9161 8.14384 17.9947C8.24167 18.0733 8.32272 18.1707 8.38219 18.2812C8.95794 19.2797 9.78649 20.1089 10.7845 20.6854C11.7824 21.2619 12.9147 21.5655 14.0672 21.5655C15.2197 21.5655 16.3519 21.2619 17.3499 20.6854C18.3479 20.1089 19.1764 19.2797 19.7522 18.2812C19.8117 18.1707 19.8927 18.0733 19.9905 17.9947C20.0884 17.9161 20.201 17.8579 20.3217 17.8237C20.4424 17.7894 20.5688 17.7797 20.6933 17.7952C20.8179 17.8106 20.938 17.851 21.0467 17.9137C21.1554 17.9765 21.2503 18.0605 21.3259 18.1606C21.4016 18.2608 21.4563 18.3751 21.4869 18.4968C21.5175 18.6185 21.5234 18.7451 21.5042 18.8691C21.485 18.9931 21.441 19.112 21.375 19.2188Z" fill="white"/>
</svg>
