<svg width="20" height="21" viewBox="0 0 20 21" fill="none" xmlns="http://www.w3.org/2000/svg">
<g opacity="0.4">
<path d="M18.2155 4.47434C18.0685 4.52654 17.9147 4.55724 17.7589 4.5655H15.933C15.6324 4.56848 15.3342 4.51149 15.0559 4.39784C14.7776 4.2842 14.5248 4.11619 14.3122 3.90364C14.0996 3.6911 13.9316 3.43829 13.8179 3.16001C13.7042 2.88173 13.6471 2.58357 13.65 2.28297V0.456681C13.6583 0.300861 13.689 0.147048 13.7412 0H3.14988C2.37194 0.000438274 1.78027 0.595614 1.78027 1.37004V6.39178H18.2155V4.47434Z" fill="white"/>
<path d="M1.78027 19.631C1.78027 20.4054 2.37194 21.0006 3.14988 21.0006H16.8459C17.6221 21.0006 18.2155 20.4072 18.2155 19.631V16.4355H1.78027V19.631Z" fill="white"/>
<path d="M18.2154 7.30469H1.78011C1.5382 7.30538 1.3064 7.40179 1.13534 7.57284C0.964287 7.7439 0.867881 7.9757 0.867188 8.21761V14.6094C0.867881 14.8513 0.964287 15.0831 1.13534 15.2542C1.3064 15.4252 1.5382 15.5216 1.78011 15.5223H18.2154C18.4573 15.5216 18.6891 15.4252 18.8601 15.2542C19.0312 15.0831 19.1276 14.8513 19.1283 14.6094V8.21805C19.1277 7.97606 19.0314 7.74415 18.8603 7.573C18.6892 7.40185 18.4574 7.30538 18.2154 7.30469ZM7.71521 12.3269V11.8702H7.25853C6.98461 11.8702 6.80185 11.6874 6.80185 11.4135C6.80185 11.1396 6.98461 10.9568 7.25853 10.9568H7.71521C7.95712 10.9575 8.18893 11.0539 8.35998 11.225C8.53104 11.396 8.62745 11.6278 8.62814 11.8697V12.3264C8.62745 12.5683 8.53104 12.8001 8.35998 12.9712C8.18893 13.1423 7.95712 13.2387 7.71521 13.2394H6.34561C6.1037 13.2387 5.8719 13.1423 5.70084 12.9712C5.52978 12.8001 5.43338 12.5683 5.43268 12.3264V10.5006C5.43338 10.2587 5.52978 10.0269 5.70084 9.85581C5.8719 9.68475 6.1037 9.58835 6.34561 9.58766H8.1719C8.44582 9.58766 8.62858 9.77042 8.62858 10.0443C8.62858 10.3183 8.44538 10.5006 8.17146 10.5006H6.34561V12.3269H7.71521ZM10.4544 12.7835C10.4544 13.0575 10.2717 13.2402 9.99774 13.2402C9.72382 13.2402 9.54106 13.0575 9.54106 12.7835V10.0443C9.54106 9.77042 9.72382 9.58766 9.99774 9.58766C10.2717 9.58766 10.4544 9.77042 10.4544 10.0443V12.7835ZM14.1066 10.9573C14.3805 10.9573 14.5632 11.14 14.5632 11.4139C14.5632 11.6879 14.3805 11.8706 14.1066 11.8706H12.2803V12.7835C12.2803 13.0575 12.0975 13.2402 11.8236 13.2402C11.5497 13.2402 11.3669 13.0575 11.3669 12.7835V10.0443C11.3669 9.77042 11.5497 9.58766 11.8236 9.58766H14.1061C14.38 9.58766 14.5628 9.77042 14.5628 10.0443C14.5628 10.3183 14.3805 10.5006 14.1066 10.5006H12.2803V10.9573H14.1066Z" fill="white"/>
</g>
</svg>
