<svg width="571" height="105" viewBox="0 0 571 105" fill="none" xmlns="http://www.w3.org/2000/svg">
<g filter="url(#filter0_bd_166_29354)">
<rect x="9" y="9" width="551" height="85" rx="6.58745" fill="#0E063D" fill-opacity="0.3" shape-rendering="crispEdges"/>
</g>
<g filter="url(#filter1_bd_166_29354)">
<rect x="9" y="9" width="104" height="85" rx="6.58745" fill="#0E063D" fill-opacity="0.3" shape-rendering="crispEdges"/>
</g>
<path d="M158.754 57.9013L154.02 70.4473H152.13L147.396 57.9013H149.142L153.084 68.7193L157.026 57.9013L158.754 57.9013ZM169.73 65.1373C169.73 65.4493 169.712 65.7793 169.676 66.1273L161.792 66.1273C161.852 67.0993 162.182 67.8613 162.782 68.4133C163.394 68.9533 164.132 69.2233 164.996 69.2233C165.704 69.2233 166.292 69.0613 166.76 68.7373C167.24 68.4013 167.576 67.9573 167.768 67.4053H169.532C169.268 68.3533 168.74 69.1273 167.948 69.7273C167.156 70.3153 166.172 70.6093 164.996 70.6093C164.06 70.6093 163.22 70.3993 162.476 69.9793C161.744 69.5593 161.168 68.9653 160.748 68.1973C160.328 67.4173 160.118 66.5173 160.118 65.4973C160.118 64.4773 160.322 63.5833 160.73 62.8153C161.138 62.0473 161.708 61.4593 162.44 61.0513C163.184 60.6313 164.036 60.4213 164.996 60.4213C165.932 60.4213 166.76 60.6253 167.48 61.0333C168.2 61.4413 168.752 62.0053 169.136 62.7253C169.532 63.4333 169.73 64.2373 169.73 65.1373ZM168.038 64.7953C168.038 64.1713 167.9 63.6373 167.624 63.1933C167.348 62.7373 166.97 62.3953 166.49 62.1673C166.022 61.9273 165.5 61.8073 164.924 61.8073C164.096 61.8073 163.388 62.0713 162.8 62.5993C162.224 63.1273 161.894 63.8593 161.81 64.7953L168.038 64.7953ZM173.71 62.1853C173.998 61.6213 174.406 61.1833 174.934 60.8713C175.474 60.5593 176.128 60.4033 176.896 60.4033V62.0953H176.464C174.628 62.0953 173.71 63.0913 173.71 65.0833V70.4473H172.072V60.5833L173.71 60.5833V62.1853ZM179.813 58.9813C179.501 58.9813 179.237 58.8733 179.021 58.6573C178.805 58.4413 178.697 58.1773 178.697 57.8653C178.697 57.5533 178.805 57.2893 179.021 57.0733C179.237 56.8573 179.501 56.7493 179.813 56.7493C180.113 56.7493 180.365 56.8573 180.569 57.0733C180.785 57.2893 180.893 57.5533 180.893 57.8653C180.893 58.1773 180.785 58.4413 180.569 58.6573C180.365 58.8733 180.113 58.9813 179.813 58.9813ZM180.605 60.5833V70.4473H178.967V60.5833H180.605ZM187.591 61.9333H185.521V70.4473H183.883V61.9333H182.605V60.5833H183.883V59.8813C183.883 58.7773 184.165 57.9733 184.729 57.4693C185.305 56.9533 186.223 56.6953 187.483 56.6953V58.0633C186.763 58.0633 186.253 58.2073 185.953 58.4953C185.665 58.7713 185.521 59.2333 185.521 59.8813V60.5833H187.591V61.9333ZM198.177 60.5833L192.237 75.0913H190.545L192.489 70.3393L188.511 60.5833H190.329L193.425 68.5753L196.485 60.5833H198.177ZM213.478 60.5833L207.538 75.0913H205.846L207.79 70.3393L203.812 60.5833H205.63L208.726 68.5753L211.786 60.5833H213.478ZM219.607 70.6093C218.683 70.6093 217.843 70.3993 217.087 69.9793C216.343 69.5593 215.755 68.9653 215.323 68.1973C214.903 67.4173 214.693 66.5173 214.693 65.4973C214.693 64.4893 214.909 63.6013 215.341 62.8333C215.785 62.0533 216.385 61.4593 217.141 61.0513C217.897 60.6313 218.743 60.4213 219.679 60.4213C220.615 60.4213 221.461 60.6313 222.217 61.0513C222.973 61.4593 223.567 62.0473 223.999 62.8153C224.443 63.5833 224.665 64.4773 224.665 65.4973C224.665 66.5173 224.437 67.4173 223.981 68.1973C223.537 68.9653 222.931 69.5593 222.163 69.9793C221.395 70.3993 220.543 70.6093 219.607 70.6093ZM219.607 69.1693C220.195 69.1693 220.747 69.0313 221.263 68.7553C221.779 68.4793 222.193 68.0653 222.505 67.5133C222.829 66.9613 222.991 66.2893 222.991 65.4973C222.991 64.7053 222.835 64.0333 222.523 63.4813C222.211 62.9293 221.803 62.5213 221.299 62.2573C220.795 61.9813 220.249 61.8433 219.661 61.8433C219.061 61.8433 218.509 61.9813 218.005 62.2573C217.513 62.5213 217.117 62.9293 216.817 63.4813C216.517 64.0333 216.367 64.7053 216.367 65.4973C216.367 66.3013 216.511 66.9793 216.799 67.5313C217.099 68.0833 217.495 68.4973 217.987 68.7733C218.479 69.0373 219.019 69.1693 219.607 69.1693ZM235.746 60.5833V70.4473H234.108V68.9893C233.796 69.4933 233.358 69.8893 232.794 70.1773C232.242 70.4533 231.63 70.5913 230.958 70.5913C230.19 70.5913 229.5 70.4353 228.888 70.1233C228.276 69.7993 227.79 69.3193 227.43 68.6833C227.082 68.0473 226.908 67.2733 226.908 66.3613V60.5833H228.528V66.1453C228.528 67.1173 228.774 67.8673 229.266 68.3953C229.758 68.9113 230.43 69.1693 231.282 69.1693C232.158 69.1693 232.848 68.8993 233.352 68.3593C233.856 67.8193 234.108 67.0333 234.108 66.0013V60.5833H235.746ZM240.33 62.1853C240.618 61.6213 241.026 61.1833 241.554 60.8713C242.094 60.5593 242.748 60.4033 243.516 60.4033V62.0953L243.084 62.0953C241.248 62.0953 240.33 63.0913 240.33 65.0833V70.4473H238.692V60.5833H240.33V62.1853ZM259.566 65.1373C259.566 65.4493 259.548 65.7793 259.512 66.1273H251.628C251.688 67.0993 252.018 67.8613 252.618 68.4133C253.23 68.9533 253.968 69.2233 254.832 69.2233C255.54 69.2233 256.128 69.0613 256.596 68.7373C257.076 68.4013 257.412 67.9573 257.604 67.4053H259.368C259.104 68.3533 258.576 69.1273 257.784 69.7273C256.992 70.3153 256.008 70.6093 254.832 70.6093C253.896 70.6093 253.056 70.3993 252.312 69.9793C251.58 69.5593 251.004 68.9653 250.584 68.1973C250.164 67.4173 249.954 66.5173 249.954 65.4973C249.954 64.4773 250.158 63.5833 250.566 62.8153C250.974 62.0473 251.544 61.4593 252.276 61.0513C253.02 60.6313 253.872 60.4213 254.832 60.4213C255.768 60.4213 256.596 60.6253 257.316 61.0333C258.036 61.4413 258.588 62.0053 258.972 62.7253C259.368 63.4333 259.566 64.2373 259.566 65.1373ZM257.874 64.7953C257.874 64.1713 257.736 63.6373 257.46 63.1933C257.184 62.7373 256.806 62.3953 256.326 62.1673C255.858 61.9273 255.336 61.8073 254.76 61.8073C253.932 61.8073 253.224 62.0713 252.636 62.5993C252.06 63.1273 251.73 63.8593 251.646 64.7953H257.874ZM273.77 60.4033C274.538 60.4033 275.222 60.5653 275.822 60.8893C276.422 61.2013 276.896 61.6753 277.244 62.3113C277.592 62.9473 277.766 63.7213 277.766 64.6333V70.4473H276.146V64.8673C276.146 63.8833 275.9 63.1333 275.408 62.6173C274.928 62.0893 274.274 61.8253 273.446 61.8253C272.594 61.8253 271.916 62.1013 271.412 62.6533C270.908 63.1933 270.656 63.9793 270.656 65.0113V70.4473H269.036V64.8673C269.036 63.8833 268.79 63.1333 268.298 62.6173C267.818 62.0893 267.164 61.8253 266.336 61.8253C265.484 61.8253 264.806 62.1013 264.302 62.6533C263.798 63.1933 263.546 63.9793 263.546 65.0113V70.4473H261.908V60.5833H263.546V62.0053C263.87 61.4893 264.302 61.0933 264.842 60.8173C265.394 60.5413 266 60.4033 266.66 60.4033C267.488 60.4033 268.22 60.5893 268.856 60.9613C269.492 61.3333 269.966 61.8793 270.278 62.5993C270.554 61.9033 271.01 61.3633 271.646 60.9793C272.282 60.5953 272.99 60.4033 273.77 60.4033ZM280.021 65.4793C280.021 64.4713 280.225 63.5893 280.633 62.8333C281.041 62.0653 281.599 61.4713 282.307 61.0513C283.027 60.6313 283.825 60.4213 284.701 60.4213C285.565 60.4213 286.315 60.6073 286.951 60.9793C287.587 61.3513 288.061 61.8193 288.373 62.3833V60.5833H290.029V70.4473H288.373V68.6113C288.049 69.1873 287.563 69.6673 286.915 70.0513C286.279 70.4233 285.535 70.6093 284.683 70.6093C283.807 70.6093 283.015 70.3933 282.307 69.9613C281.599 69.5293 281.041 68.9233 280.633 68.1433C280.225 67.3633 280.021 66.4753 280.021 65.4793ZM288.373 65.4973C288.373 64.7533 288.223 64.1053 287.923 63.5533C287.623 63.0013 287.215 62.5813 286.699 62.2933C286.195 61.9933 285.637 61.8433 285.025 61.8433C284.413 61.8433 283.855 61.9873 283.351 62.2753C282.847 62.5633 282.445 62.9833 282.145 63.5353C281.845 64.0873 281.695 64.7353 281.695 65.4793C281.695 66.2353 281.845 66.8953 282.145 67.4593C282.445 68.0113 282.847 68.4373 283.351 68.7373C283.855 69.0253 284.413 69.1693 285.025 69.1693C285.637 69.1693 286.195 69.0253 286.699 68.7373C287.215 68.4373 287.623 68.0113 287.923 67.4593C288.223 66.8953 288.373 66.2413 288.373 65.4973ZM293.823 58.9813C293.511 58.9813 293.247 58.8733 293.031 58.6573C292.815 58.4413 292.707 58.1773 292.707 57.8653C292.707 57.5533 292.815 57.2893 293.031 57.0733C293.247 56.8573 293.511 56.7493 293.823 56.7493C294.123 56.7493 294.375 56.8573 294.579 57.0733C294.795 57.2893 294.903 57.5533 294.903 57.8653C294.903 58.1773 294.795 58.4413 294.579 58.6573C294.375 58.8733 294.123 58.9813 293.823 58.9813ZM294.615 60.5833V70.4473H292.977V60.5833H294.615ZM299.224 57.1273V70.4473H297.586V57.1273H299.224ZM302.718 70.5553C302.406 70.5553 302.142 70.4473 301.926 70.2313C301.71 70.0153 301.602 69.7513 301.602 69.4393C301.602 69.1273 301.71 68.8633 301.926 68.6473C302.142 68.4313 302.406 68.3233 302.718 68.3233C303.018 68.3233 303.27 68.4313 303.474 68.6473C303.69 68.8633 303.798 69.1273 303.798 69.4393C303.798 69.7513 303.69 70.0153 303.474 70.2313C303.27 70.4473 303.018 70.5553 302.718 70.5553Z" fill="white"/>
<g filter="url(#filter2_d_166_29354)">
<path d="M162.426 31.364V44L159.348 44V36.422L156.522 44H154.038L151.194 36.404V44H148.116V31.364H151.752L155.298 40.112L158.808 31.364L162.426 31.364ZM173.505 41.768L168.789 41.768L168.033 44H164.811L169.383 31.364L172.947 31.364L177.519 44H174.261L173.505 41.768ZM172.713 39.392L171.147 34.766L169.599 39.392L172.713 39.392ZM182.989 31.364V44H179.911V31.364H182.989ZM189.298 41.624H193.33V44H186.22V31.364L189.298 31.364V41.624ZM212.474 31.364L207.992 44L204.14 44L199.658 31.364H202.934L206.066 40.904L209.216 31.364H212.474ZM217.839 33.83V36.386H221.961V38.762H217.839V41.534H222.501V44H214.761V31.364H222.501V33.83H217.839ZM231.943 44L229.315 39.23H228.577V44H225.499V31.364H230.665C231.661 31.364 232.507 31.538 233.203 31.886C233.911 32.234 234.439 32.714 234.787 33.326C235.135 33.926 235.309 34.598 235.309 35.342C235.309 36.182 235.069 36.932 234.589 37.592C234.121 38.252 233.425 38.72 232.501 38.996L235.417 44L231.943 44ZM228.577 37.052L230.485 37.052C231.049 37.052 231.469 36.914 231.745 36.638C232.033 36.362 232.177 35.972 232.177 35.468C232.177 34.988 232.033 34.61 231.745 34.334C231.469 34.058 231.049 33.92 230.485 33.92L228.577 33.92V37.052ZM241.319 31.364V44L238.241 44V31.364H241.319ZM252.776 31.364V33.83H247.628V36.494H251.48V38.888H247.628V44H244.55V31.364L252.776 31.364ZM266.229 31.364L261.855 39.824V44H258.777V39.824L254.403 31.364H257.895L260.343 36.656L262.773 31.364H266.229Z" fill="white"/>
</g>
<g clip-path="url(#clip0_166_29354)">
<path d="M66.1579 52.29C66.1579 55.8462 63.2648 58.7394 59.7086 58.7394C56.1524 58.7394 53.2592 55.8462 53.2592 52.29C53.2592 48.7338 56.1524 45.8405 59.7086 45.8405C61.0214 45.8405 62.2433 46.2358 63.2633 46.9122L67.0035 43.1721C66.9191 43.1104 66.8343 43.0489 66.748 42.9886C64.2115 41.2161 61.6707 40.3203 59.1853 40.3203C58.9577 40.3203 58.7306 40.3278 58.5039 40.3428C55.505 40.5469 52.7112 41.882 50.639 44.1018C48.5616 46.3236 47.418 49.2313 47.418 52.29C47.418 55.5718 48.6967 58.658 51.0186 60.9799C53.3406 63.3019 56.4267 64.5806 59.7085 64.5806C62.9903 64.5806 66.0765 63.3018 68.3984 60.9799C70.7203 58.6579 71.9989 55.5718 71.9989 52.29C71.9989 49.5887 70.908 46.9952 68.9385 44.8828L65.086 48.7352C65.7627 49.7552 66.1579 50.9772 66.1579 52.29Z" fill="white"/>
<path d="M58.7995 51.3788L61.3804 48.7979C60.8747 48.5552 60.3085 48.4189 59.7111 48.4189C57.5765 48.4189 55.8398 50.1557 55.8398 52.2903C55.8398 54.4249 57.5765 56.1616 59.7111 56.1616C61.8457 56.1616 63.5823 54.4249 63.5823 52.2903C63.5823 51.6929 63.4461 51.1267 63.2034 50.6209L60.6226 53.2017L58.7995 51.3788Z" fill="white"/>
<path d="M72.3682 41.4546L70.7642 43.0586C73.2171 45.6557 74.5786 48.8924 74.5786 52.29C74.5786 56.2605 73.0317 59.9939 70.2228 62.8028C67.4139 65.6118 63.6803 67.1587 59.7099 67.1587C55.7395 67.1587 52.006 65.6118 49.197 62.8028C46.388 59.9939 44.8412 56.2604 44.8412 52.29C44.8412 48.5751 46.2317 45.0421 48.7565 42.3418C51.2756 39.643 54.6767 38.0192 58.3324 37.7704C61.6368 37.552 64.9643 38.5959 68.2261 40.8753C68.4378 41.0233 68.6437 41.1758 68.8459 41.331L70.5453 39.6316L70.8174 34.8027C67.5282 32.7045 63.7057 31.5801 59.71 31.5801C54.1782 31.5801 48.9774 33.7343 45.0659 37.6458C41.1542 41.5573 39 46.7581 39 52.2899C39 57.8217 41.1542 63.0225 45.0658 66.934C48.9774 70.8455 54.1781 72.9998 59.7099 72.9998C65.2417 72.9998 70.4425 70.8456 74.354 66.934C78.2655 63.0224 80.4197 57.8217 80.4197 52.2899C80.4197 48.2942 79.2952 44.4716 77.1971 41.1825L72.3682 41.4546Z" fill="white"/>
<path d="M73.1719 38.8273L78.4397 38.5304L82.9992 33.9708L78.0285 29L73.4689 33.5595L73.1719 38.8273Z" fill="white"/>
</g>
<g filter="url(#filter3_bd_166_29354)">
<circle cx="15.7749" cy="15.7749" r="15.7749" transform="matrix(-0.707107 0.707107 0.707107 0.707107 524.688 29.001)" fill="#0E063D" fill-opacity="0.6" shape-rendering="crispEdges"/>
<circle cx="15.7749" cy="15.7749" r="16.2749" transform="matrix(-0.707107 0.707107 0.707107 0.707107 524.688 29.001)" stroke="url(#paint0_linear_166_29354)" stroke-linejoin="round" shape-rendering="crispEdges"/>
</g>
<path d="M520.672 54.4024L525.964 49.1106L522.399 48.7851C522.232 48.7697 522.078 48.6887 521.971 48.5599C521.864 48.431 521.813 48.2649 521.828 48.098C521.843 47.9312 521.924 47.7773 522.053 47.6702C522.182 47.5631 522.348 47.5116 522.515 47.5269L527.423 47.9729C527.459 47.9792 527.495 47.9881 527.53 47.9996C527.552 48.0219 527.566 48.0353 527.619 48.0264C527.691 48.0573 527.756 48.1012 527.811 48.1558C527.866 48.2112 527.909 48.2762 527.94 48.3476C527.963 48.3699 527.976 48.3833 527.967 48.4369C527.979 48.4718 527.988 48.5076 527.994 48.5439L528.44 53.4517C528.448 53.544 528.436 53.637 528.405 53.7242C528.373 53.8113 528.323 53.8904 528.257 53.9559C528.153 54.0603 528.016 54.125 527.869 54.1388C527.786 54.1465 527.703 54.1379 527.624 54.1133C527.544 54.0888 527.471 54.0489 527.407 53.9958C527.343 53.9428 527.29 53.8777 527.252 53.8042C527.213 53.7308 527.189 53.6504 527.182 53.5677L526.856 50.0029L521.564 55.2946C521.446 55.413 521.286 55.4795 521.118 55.4795C520.951 55.4795 520.79 55.413 520.672 55.2947C520.554 55.1764 520.487 55.0159 520.487 54.8485C520.487 54.6812 520.554 54.5207 520.672 54.4024Z" fill="#E6E3EC"/>
<defs>
<filter id="filter0_bd_166_29354" x="-91" y="-91" width="751" height="285" filterUnits="userSpaceOnUse" color-interpolation-filters="sRGB">
<feFlood flood-opacity="0" result="BackgroundImageFix"/>
<feGaussianBlur in="BackgroundImageFix" stdDeviation="50"/>
<feComposite in2="SourceAlpha" operator="in" result="effect1_backgroundBlur_166_29354"/>
<feColorMatrix in="SourceAlpha" type="matrix" values="0 0 0 0 0 0 0 0 0 0 0 0 0 0 0 0 0 0 127 0" result="hardAlpha"/>
<feOffset dx="1" dy="1"/>
<feGaussianBlur stdDeviation="5"/>
<feComposite in2="hardAlpha" operator="out"/>
<feColorMatrix type="matrix" values="0 0 0 0 1 0 0 0 0 0.00416666 0 0 0 0 0.243167 0 0 0 0.18 0"/>
<feBlend mode="normal" in2="effect1_backgroundBlur_166_29354" result="effect2_dropShadow_166_29354"/>
<feBlend mode="normal" in="SourceGraphic" in2="effect2_dropShadow_166_29354" result="shape"/>
</filter>
<filter id="filter1_bd_166_29354" x="-91" y="-91" width="304" height="285" filterUnits="userSpaceOnUse" color-interpolation-filters="sRGB">
<feFlood flood-opacity="0" result="BackgroundImageFix"/>
<feGaussianBlur in="BackgroundImageFix" stdDeviation="50"/>
<feComposite in2="SourceAlpha" operator="in" result="effect1_backgroundBlur_166_29354"/>
<feColorMatrix in="SourceAlpha" type="matrix" values="0 0 0 0 0 0 0 0 0 0 0 0 0 0 0 0 0 0 127 0" result="hardAlpha"/>
<feOffset dx="1" dy="1"/>
<feGaussianBlur stdDeviation="5"/>
<feComposite in2="hardAlpha" operator="out"/>
<feColorMatrix type="matrix" values="0 0 0 0 1 0 0 0 0 0.00416666 0 0 0 0 0.243167 0 0 0 0.18 0"/>
<feBlend mode="normal" in2="effect1_backgroundBlur_166_29354" result="effect2_dropShadow_166_29354"/>
<feBlend mode="normal" in="SourceGraphic" in2="effect2_dropShadow_166_29354" result="shape"/>
</filter>
<filter id="filter2_d_166_29354" x="145.117" y="29.3643" width="126.113" height="20.6357" filterUnits="userSpaceOnUse" color-interpolation-filters="sRGB">
<feFlood flood-opacity="0" result="BackgroundImageFix"/>
<feColorMatrix in="SourceAlpha" type="matrix" values="0 0 0 0 0 0 0 0 0 0 0 0 0 0 0 0 0 0 127 0" result="hardAlpha"/>
<feOffset dx="1" dy="2"/>
<feGaussianBlur stdDeviation="2"/>
<feComposite in2="hardAlpha" operator="out"/>
<feColorMatrix type="matrix" values="0 0 0 0 0.6875 0 0 0 0 0.6875 0 0 0 0 0.6875 0 0 0 0.18 0"/>
<feBlend mode="normal" in2="BackgroundImageFix" result="effect1_dropShadow_166_29354"/>
<feBlend mode="normal" in="SourceGraphic" in2="effect1_dropShadow_166_29354" result="shape"/>
</filter>
<filter id="filter3_bd_166_29354" x="407.914" y="-65.4648" width="233.547" height="233.55" filterUnits="userSpaceOnUse" color-interpolation-filters="sRGB">
<feFlood flood-opacity="0" result="BackgroundImageFix"/>
<feGaussianBlur in="BackgroundImageFix" stdDeviation="50"/>
<feComposite in2="SourceAlpha" operator="in" result="effect1_backgroundBlur_166_29354"/>
<feColorMatrix in="SourceAlpha" type="matrix" values="0 0 0 0 0 0 0 0 0 0 0 0 0 0 0 0 0 0 127 0" result="hardAlpha"/>
<feOffset dx="1" dy="1"/>
<feGaussianBlur stdDeviation="5"/>
<feComposite in2="hardAlpha" operator="out"/>
<feColorMatrix type="matrix" values="0 0 0 0 1 0 0 0 0 0.00416666 0 0 0 0 0.243167 0 0 0 0.18 0"/>
<feBlend mode="normal" in2="effect1_backgroundBlur_166_29354" result="effect2_dropShadow_166_29354"/>
<feBlend mode="normal" in="SourceGraphic" in2="effect2_dropShadow_166_29354" result="shape"/>
</filter>
<linearGradient id="paint0_linear_166_29354" x1="31.2493" y1="0.302203" x2="-4.18877" y2="24.2575" gradientUnits="userSpaceOnUse">
<stop offset="0.15625" stop-color="#FF6B2C"/>
<stop offset="0.473958" stop-color="#BF4B5A"/>
<stop offset="0.953125" stop-color="#B102CD"/>
</linearGradient>
<clipPath id="clip0_166_29354">
<rect width="44" height="44" fill="white" transform="translate(39 29)"/>
</clipPath>
</defs>
</svg>
