<svg width="28" height="28" viewBox="0 0 28 28" fill="none" xmlns="http://www.w3.org/2000/svg">
<path d="M14 0.875977C6.755 0.875977 0.875 6.75598 0.875 14.001C0.875 21.246 6.755 27.126 14 27.126C21.245 27.126 27.125 21.246 27.125 14.001C27.125 6.75598 21.245 0.875977 14 0.875977ZM14 21.876C13.0375 21.876 12.25 21.0885 12.25 20.126C12.25 19.1635 13.0375 18.376 14 18.376C14.9625 18.376 15.75 19.1635 15.75 20.126C15.75 21.0885 14.9625 21.876 14 21.876ZM16.0038 8.30473L15.4175 15.3222C15.3563 16.0572 14.7437 16.626 14 16.626C13.2563 16.626 12.6438 16.0572 12.5825 15.3222L11.9963 8.30473C11.9 7.13223 12.8188 6.12598 14 6.12598C15.12 6.12598 16.0125 7.03598 16.0125 8.13848C16.0125 8.19098 16.0125 8.25223 16.0038 8.30473Z" fill="#C0C0C0"/>
</svg>
