<svg width="28" height="28" viewBox="0 0 28 28" fill="none" xmlns="http://www.w3.org/2000/svg">
<path d="M19.6766 23.4785L14 21.8379L8.32338 23.4785C8.27422 23.577 8.25781 23.6754 8.25781 23.7902V27.1809H19.7422V23.7902C19.7422 23.6754 19.7258 23.577 19.6766 23.4785Z" fill="#646D73"/>
<path d="M19.7422 27.1809V23.7902C19.7422 23.6754 19.7258 23.577 19.6766 23.4785L14 21.8379V27.1809H19.7422Z" fill="#474F54"/>
<path d="M27.1797 1.6416H22.9882C22.9954 1.3645 23.0234 1.10348 23.0234 0.821289C23.0234 0.361859 22.6626 0.000976562 22.2031 0.000976562H5.79688C5.33745 0.000976562 4.97656 0.361859 4.97656 0.821289C4.97656 1.10348 5.00462 1.3645 5.01173 1.6416H0.820312C0.366898 1.6416 0 2.0085 0 2.46191V4.53993C0 9.12023 3.66909 12.841 8.19071 13.0805C9.1327 14.3775 10.2507 15.34 11.5227 15.8822C11.3258 19.8689 9.04531 22.6416 8.50396 23.2159C8.42188 23.2814 8.35625 23.3799 8.32344 23.4783H19.6766C19.6437 23.3799 19.5782 23.2814 19.4961 23.2159C18.9383 22.6416 16.6742 19.8854 16.4773 15.8822C17.7496 15.3399 18.8743 14.3772 19.8171 13.0797C24.3348 12.8363 28 9.11766 28 4.53993V2.46191C28 2.0085 27.6331 1.6416 27.1797 1.6416ZM1.64062 4.53993V3.28223H5.08211C5.29501 5.99352 5.88295 8.86505 7.11867 11.3053C4.02117 10.6078 1.64062 7.84552 1.64062 4.53993ZM26.3594 4.53993C26.3594 7.84382 23.981 10.6048 20.8858 11.3039C22.1117 8.86369 22.7029 6.01994 22.9179 3.28223H26.3594V4.53993Z" fill="#FED843"/>
<path d="M27.1797 1.6416H22.9882C22.9954 1.3645 23.0234 1.10348 23.0234 0.821289C23.0234 0.361859 22.6626 0.000976562 22.2031 0.000976562H14V23.4783H19.6766C19.6437 23.3799 19.5782 23.2814 19.4961 23.2159C18.9383 22.6416 16.6742 19.8854 16.4773 15.8822C17.7496 15.3399 18.8743 14.3772 19.8171 13.0797C24.3348 12.8363 28 9.11766 28 4.53993V2.46191C28 2.0085 27.6331 1.6416 27.1797 1.6416ZM26.3594 4.53993C26.3594 7.84382 23.981 10.6048 20.8858 11.3039C22.1118 8.86369 22.703 6.01994 22.9179 3.28223H26.3594V4.53993Z" fill="#FABE2C"/>
<path d="M15.3091 10.4348L14.0001 9.75467L12.6911 10.4348C12.4171 10.5758 12.0823 10.5526 11.8308 10.3707C11.5792 10.1881 11.4526 9.87886 11.5039 9.57283L11.7442 8.11563L10.6948 7.07985C10.4664 6.85716 10.3966 6.52701 10.4898 6.24193C10.5859 5.94711 10.8406 5.73082 11.1483 5.68439L12.6062 5.46487L13.2663 4.14548C13.5451 3.58953 14.4551 3.58953 14.7339 4.14548L15.394 5.46487L16.8519 5.68439C17.1596 5.73087 17.4143 5.94716 17.5104 6.24193C17.6066 6.53751 17.528 6.86197 17.3054 7.07985L16.256 8.11563L16.4963 9.57283C16.5476 9.87886 16.421 10.1881 16.1694 10.3707C15.9196 10.5518 15.5853 10.5785 15.3091 10.4348Z" fill="#FABE2C"/>
<path d="M15.309 10.4348C15.5853 10.5786 15.9195 10.5518 16.1693 10.3707C16.4209 10.1881 16.5475 9.87889 16.4962 9.57286L16.2559 8.11566L17.3053 7.07987C17.5279 6.862 17.6065 6.53754 17.5103 6.24195C17.4142 5.94713 17.1595 5.73084 16.8518 5.68441L15.3939 5.4649L14.7338 4.14551C14.5944 3.86753 14.2972 3.72852 14 3.72852V9.75469L15.309 10.4348Z" fill="#FF9100"/>
<path d="M20.5625 28.001H7.4375C6.98409 28.001 6.61719 27.6341 6.61719 27.1807C6.61719 26.7272 6.98409 26.3604 7.4375 26.3604H20.5625C21.0159 26.3604 21.3828 26.7272 21.3828 27.1807C21.3828 27.6341 21.0159 28.001 20.5625 28.001Z" fill="#474F54"/>
<path d="M20.5625 26.3604H14V28.001H20.5625C21.0159 28.001 21.3828 27.6341 21.3828 27.1807C21.3828 26.7272 21.0159 26.3604 20.5625 26.3604Z" fill="#32393F"/>
</svg>
