<svg width="35" height="35" viewBox="0 0 35 35" fill="none" xmlns="http://www.w3.org/2000/svg">
<circle cx="17.0382" cy="17.0382" r="17.0382" transform="matrix(-1 -2.18557e-08 -2.18557e-08 1 34.0767 0.000976562)" fill="white" fill-opacity="0.3"/>
<path d="M11.7756 16.0906L19.8585 16.0906L17.3846 13.1194C17.2689 12.9803 17.2132 12.8009 17.2299 12.6207C17.2465 12.4405 17.334 12.2742 17.4732 12.1586C17.6124 12.0429 17.7918 11.9872 17.972 12.0039C18.1522 12.0205 18.3185 12.108 18.4341 12.2472L21.8418 16.336C21.8647 16.3685 21.8852 16.4027 21.9031 16.4382C21.9031 16.4723 21.9031 16.4927 21.9508 16.5268C21.9817 16.6049 21.9979 16.6881 21.9985 16.7721C21.9979 16.8561 21.9817 16.9393 21.9508 17.0174C21.9508 17.0515 21.9508 17.072 21.9031 17.106C21.8852 17.1416 21.8647 17.1757 21.8418 17.2083L18.4341 21.2971C18.3701 21.374 18.2898 21.4359 18.1991 21.4783C18.1084 21.5207 18.0095 21.5426 17.9094 21.5424C17.7501 21.5427 17.5958 21.4872 17.4732 21.3857C17.4042 21.3284 17.3471 21.2582 17.3053 21.1789C17.2635 21.0996 17.2377 21.0129 17.2295 20.9236C17.2213 20.8343 17.2307 20.7443 17.2573 20.6587C17.284 20.5731 17.3272 20.4936 17.3846 20.4248L19.8585 17.4536L11.7756 17.4536C11.5948 17.4536 11.4215 17.3818 11.2937 17.254C11.1659 17.1262 11.0941 16.9528 11.0941 16.7721C11.0941 16.5914 11.1659 16.418 11.2937 16.2902C11.4215 16.1624 11.5948 16.0906 11.7756 16.0906Z" fill="#E1E0FF"/>
</svg>
