<svg width="571" height="105" viewBox="0 0 571 105" fill="none" xmlns="http://www.w3.org/2000/svg">
<g filter="url(#filter0_bd_166_40406)">
<rect x="9" y="9" width="551" height="85" rx="6.58745" fill="#0E063D" fill-opacity="0.3" shape-rendering="crispEdges"/>
</g>
<g filter="url(#filter1_bd_166_40406)">
<rect x="9" y="9" width="104" height="85" rx="6.58745" fill="#0E063D" fill-opacity="0.3" shape-rendering="crispEdges"/>
</g>
<path d="M164.154 57.454L160.518 70H158.682L155.766 59.902L152.742 70L150.924 70.018L147.414 57.454H149.16L151.896 68.092L154.92 57.454H156.756L159.636 68.056L162.39 57.454H164.154ZM175.127 64.69C175.127 65.002 175.109 65.332 175.073 65.68H167.189C167.249 66.652 167.579 67.414 168.179 67.966C168.791 68.506 169.529 68.776 170.393 68.776C171.101 68.776 171.689 68.614 172.157 68.29C172.637 67.954 172.973 67.51 173.165 66.958H174.929C174.665 67.906 174.137 68.68 173.345 69.28C172.553 69.868 171.569 70.162 170.393 70.162C169.457 70.162 168.617 69.952 167.873 69.532C167.141 69.112 166.565 68.518 166.145 67.75C165.725 66.97 165.515 66.07 165.515 65.05C165.515 64.03 165.719 63.136 166.127 62.368C166.535 61.6 167.105 61.012 167.837 60.604C168.581 60.184 169.433 59.974 170.393 59.974C171.329 59.974 172.157 60.178 172.877 60.586C173.597 60.994 174.149 61.558 174.533 62.278C174.929 62.986 175.127 63.79 175.127 64.69ZM173.435 64.348C173.435 63.724 173.297 63.19 173.021 62.746C172.745 62.29 172.367 61.948 171.887 61.72C171.419 61.48 170.897 61.36 170.321 61.36C169.493 61.36 168.785 61.624 168.197 62.152C167.621 62.68 167.291 63.412 167.207 64.348H173.435ZM186.469 64.69C186.469 65.002 186.451 65.332 186.415 65.68H178.531C178.591 66.652 178.921 67.414 179.521 67.966C180.133 68.506 180.871 68.776 181.735 68.776C182.443 68.776 183.031 68.614 183.499 68.29C183.979 67.954 184.315 67.51 184.507 66.958H186.271C186.007 67.906 185.479 68.68 184.687 69.28C183.895 69.868 182.911 70.162 181.735 70.162C180.799 70.162 179.959 69.952 179.215 69.532C178.483 69.112 177.907 68.518 177.487 67.75C177.067 66.97 176.857 66.07 176.857 65.05C176.857 64.03 177.061 63.136 177.469 62.368C177.877 61.6 178.447 61.012 179.179 60.604C179.923 60.184 180.775 59.974 181.735 59.974C182.671 59.974 183.499 60.178 184.219 60.586C184.939 60.994 185.491 61.558 185.875 62.278C186.271 62.986 186.469 63.79 186.469 64.69ZM184.777 64.348C184.777 63.724 184.639 63.19 184.363 62.746C184.087 62.29 183.709 61.948 183.229 61.72C182.761 61.48 182.239 61.36 181.663 61.36C180.835 61.36 180.127 61.624 179.539 62.152C178.963 62.68 178.633 63.412 178.549 64.348H184.777ZM194.319 70L190.449 65.644V70H188.811V56.68H190.449V64.51L194.247 60.136H196.533L191.889 65.05L196.551 70L194.319 70ZM199.892 56.68V70H198.254V56.68H199.892ZM211.36 60.136L205.42 74.644H203.728L205.672 69.892L201.694 60.136H203.512L206.608 68.128L209.668 60.136H211.36ZM231.306 60.136L228.228 70H226.536L224.16 62.17L221.784 70H220.092L216.996 60.136H218.67L220.938 68.416L223.386 60.136H225.06L227.454 68.434L229.686 60.136H231.306ZM232.499 65.032C232.499 64.024 232.703 63.142 233.111 62.386C233.519 61.618 234.077 61.024 234.785 60.604C235.505 60.184 236.303 59.974 237.179 59.974C238.043 59.974 238.793 60.16 239.429 60.532C240.065 60.904 240.539 61.372 240.851 61.936V60.136H242.507V70L240.851 70V68.164C240.527 68.74 240.041 69.22 239.393 69.604C238.757 69.976 238.013 70.162 237.161 70.162C236.285 70.162 235.493 69.946 234.785 69.514C234.077 69.082 233.519 68.476 233.111 67.696C232.703 66.916 232.499 66.028 232.499 65.032ZM240.851 65.05C240.851 64.306 240.701 63.658 240.401 63.106C240.101 62.554 239.693 62.134 239.177 61.846C238.673 61.546 238.115 61.396 237.503 61.396C236.891 61.396 236.333 61.54 235.829 61.828C235.325 62.116 234.923 62.536 234.623 63.088C234.323 63.64 234.173 64.288 234.173 65.032C234.173 65.788 234.323 66.448 234.623 67.012C234.923 67.564 235.325 67.99 235.829 68.29C236.333 68.578 236.891 68.722 237.503 68.722C238.115 68.722 238.673 68.578 239.177 68.29C239.693 67.99 240.101 67.564 240.401 67.012C240.701 66.448 240.851 65.794 240.851 65.05ZM249.523 59.974C250.375 59.974 251.119 60.16 251.755 60.532C252.403 60.904 252.883 61.372 253.195 61.936V60.136H254.851V70.216C254.851 71.116 254.659 71.914 254.275 72.61C253.891 73.318 253.339 73.87 252.619 74.266C251.911 74.662 251.083 74.86 250.135 74.86C248.839 74.86 247.759 74.554 246.895 73.942C246.031 73.33 245.521 72.496 245.365 71.44H246.985C247.165 72.04 247.537 72.52 248.101 72.88C248.665 73.252 249.343 73.438 250.135 73.438C251.035 73.438 251.767 73.156 252.331 72.592C252.907 72.028 253.195 71.236 253.195 70.216V68.146C252.871 68.722 252.391 69.202 251.755 69.586C251.119 69.97 250.375 70.162 249.523 70.162C248.647 70.162 247.849 69.946 247.129 69.514C246.421 69.082 245.863 68.476 245.455 67.696C245.047 66.916 244.843 66.028 244.843 65.032C244.843 64.024 245.047 63.142 245.455 62.386C245.863 61.618 246.421 61.024 247.129 60.604C247.849 60.184 248.647 59.974 249.523 59.974ZM253.195 65.05C253.195 64.306 253.045 63.658 252.745 63.106C252.445 62.554 252.037 62.134 251.521 61.846C251.017 61.546 250.459 61.396 249.847 61.396C249.235 61.396 248.677 61.54 248.173 61.828C247.669 62.116 247.267 62.536 246.967 63.088C246.667 63.64 246.517 64.288 246.517 65.032C246.517 65.788 246.667 66.448 246.967 67.012C247.267 67.564 247.669 67.99 248.173 68.29C248.677 68.578 249.235 68.722 249.847 68.722C250.459 68.722 251.017 68.578 251.521 68.29C252.037 67.99 252.445 67.564 252.745 67.012C253.045 66.448 253.195 65.794 253.195 65.05ZM266.799 64.69C266.799 65.002 266.781 65.332 266.745 65.68H258.861C258.921 66.652 259.251 67.414 259.851 67.966C260.463 68.506 261.201 68.776 262.065 68.776C262.773 68.776 263.361 68.614 263.829 68.29C264.309 67.954 264.645 67.51 264.837 66.958H266.601C266.337 67.906 265.809 68.68 265.017 69.28C264.225 69.868 263.241 70.162 262.065 70.162C261.129 70.162 260.289 69.952 259.545 69.532C258.813 69.112 258.237 68.518 257.817 67.75C257.397 66.97 257.187 66.07 257.187 65.05C257.187 64.03 257.391 63.136 257.799 62.368C258.207 61.6 258.777 61.012 259.509 60.604C260.253 60.184 261.105 59.974 262.065 59.974C263.001 59.974 263.829 60.178 264.549 60.586C265.269 60.994 265.821 61.558 266.205 62.278C266.601 62.986 266.799 63.79 266.799 64.69ZM265.107 64.348C265.107 63.724 264.969 63.19 264.693 62.746C264.417 62.29 264.039 61.948 263.559 61.72C263.091 61.48 262.569 61.36 261.993 61.36C261.165 61.36 260.457 61.624 259.869 62.152C259.293 62.68 258.963 63.412 258.879 64.348H265.107ZM270.779 61.738C271.067 61.174 271.475 60.736 272.003 60.424C272.543 60.112 273.197 59.956 273.965 59.956V61.648H273.533C271.697 61.648 270.779 62.644 270.779 64.636V70H269.141V60.136H270.779V61.738ZM282.653 61.738C282.941 61.174 283.349 60.736 283.877 60.424C284.417 60.112 285.071 59.956 285.839 59.956V61.648H285.407C283.571 61.648 282.653 62.644 282.653 64.636V70H281.015V60.136H282.653V61.738ZM296.91 64.69C296.91 65.002 296.892 65.332 296.856 65.68H288.972C289.032 66.652 289.362 67.414 289.962 67.966C290.574 68.506 291.312 68.776 292.176 68.776C292.884 68.776 293.472 68.614 293.94 68.29C294.42 67.954 294.756 67.51 294.948 66.958H296.712C296.448 67.906 295.92 68.68 295.128 69.28C294.336 69.868 293.352 70.162 292.176 70.162C291.24 70.162 290.4 69.952 289.656 69.532C288.924 69.112 288.348 68.518 287.928 67.75C287.508 66.97 287.298 66.07 287.298 65.05C287.298 64.03 287.502 63.136 287.91 62.368C288.318 61.6 288.888 61.012 289.62 60.604C290.364 60.184 291.216 59.974 292.176 59.974C293.112 59.974 293.94 60.178 294.66 60.586C295.38 60.994 295.932 61.558 296.316 62.278C296.712 62.986 296.91 63.79 296.91 64.69ZM295.218 64.348C295.218 63.724 295.08 63.19 294.804 62.746C294.528 62.29 294.15 61.948 293.67 61.72C293.202 61.48 292.68 61.36 292.104 61.36C291.276 61.36 290.568 61.624 289.98 62.152C289.404 62.68 289.074 63.412 288.99 64.348H295.218ZM298.64 65.032C298.64 64.024 298.844 63.142 299.252 62.386C299.66 61.618 300.218 61.024 300.926 60.604C301.646 60.184 302.444 59.974 303.32 59.974C304.184 59.974 304.934 60.16 305.57 60.532C306.206 60.904 306.68 61.372 306.992 61.936V60.136H308.648V70H306.992V68.164C306.668 68.74 306.182 69.22 305.534 69.604C304.898 69.976 304.154 70.162 303.302 70.162C302.426 70.162 301.634 69.946 300.926 69.514C300.218 69.082 299.66 68.476 299.252 67.696C298.844 66.916 298.64 66.028 298.64 65.032ZM306.992 65.05C306.992 64.306 306.842 63.658 306.542 63.106C306.242 62.554 305.834 62.134 305.318 61.846C304.814 61.546 304.256 61.396 303.644 61.396C303.032 61.396 302.474 61.54 301.97 61.828C301.466 62.116 301.064 62.536 300.764 63.088C300.464 63.64 300.314 64.288 300.314 65.032C300.314 65.788 300.464 66.448 300.764 67.012C301.064 67.564 301.466 67.99 301.97 68.29C302.474 68.578 303.032 68.722 303.644 68.722C304.256 68.722 304.814 68.578 305.318 68.29C305.834 67.99 306.242 67.564 306.542 67.012C306.842 66.448 306.992 65.794 306.992 65.05ZM310.984 65.05C310.984 64.03 311.188 63.142 311.596 62.386C312.004 61.618 312.568 61.024 313.288 60.604C314.02 60.184 314.854 59.974 315.79 59.974C317.002 59.974 317.998 60.268 318.778 60.856C319.57 61.444 320.092 62.26 320.344 63.304H318.58C318.412 62.704 318.082 62.23 317.59 61.882C317.11 61.534 316.51 61.36 315.79 61.36C314.854 61.36 314.098 61.684 313.522 62.332C312.946 62.968 312.658 63.874 312.658 65.05C312.658 66.238 312.946 67.156 313.522 67.804C314.098 68.452 314.854 68.776 315.79 68.776C316.51 68.776 317.11 68.608 317.59 68.272C318.07 67.936 318.4 67.456 318.58 66.832H320.344C320.08 67.84 319.552 68.65 318.76 69.262C317.968 69.862 316.978 70.162 315.79 70.162C314.854 70.162 314.02 69.952 313.288 69.532C312.568 69.112 312.004 68.518 311.596 67.75C311.188 66.982 310.984 66.082 310.984 65.05ZM327.606 59.956C328.35 59.956 329.022 60.118 329.622 60.442C330.222 60.754 330.69 61.228 331.026 61.864C331.374 62.5 331.548 63.274 331.548 64.186V70H329.928V64.42C329.928 63.436 329.682 62.686 329.19 62.17C328.698 61.642 328.026 61.378 327.174 61.378C326.31 61.378 325.62 61.648 325.104 62.188C324.6 62.728 324.348 63.514 324.348 64.546V70H322.71V56.68H324.348V61.54C324.672 61.036 325.116 60.646 325.68 60.37C326.256 60.094 326.898 59.956 327.606 59.956ZM343.403 64.69C343.403 65.002 343.385 65.332 343.349 65.68L335.465 65.68C335.525 66.652 335.855 67.414 336.455 67.966C337.067 68.506 337.805 68.776 338.669 68.776C339.377 68.776 339.965 68.614 340.433 68.29C340.913 67.954 341.249 67.51 341.441 66.958L343.205 66.958C342.941 67.906 342.413 68.68 341.621 69.28C340.829 69.868 339.845 70.162 338.669 70.162C337.733 70.162 336.893 69.952 336.149 69.532C335.417 69.112 334.841 68.518 334.421 67.75C334.001 66.97 333.791 66.07 333.791 65.05C333.791 64.03 333.995 63.136 334.403 62.368C334.811 61.6 335.381 61.012 336.113 60.604C336.857 60.184 337.709 59.974 338.669 59.974C339.605 59.974 340.433 60.178 341.153 60.586C341.873 60.994 342.425 61.558 342.809 62.278C343.205 62.986 343.403 63.79 343.403 64.69ZM341.711 64.348C341.711 63.724 341.573 63.19 341.297 62.746C341.021 62.29 340.643 61.948 340.163 61.72C339.695 61.48 339.173 61.36 338.597 61.36C337.769 61.36 337.061 61.624 336.473 62.152C335.897 62.68 335.567 63.412 335.483 64.348H341.711ZM349.237 70.162C348.481 70.162 347.803 70.036 347.203 69.784C346.603 69.52 346.129 69.16 345.781 68.704C345.433 68.236 345.241 67.702 345.205 67.102H346.897C346.945 67.594 347.173 67.996 347.581 68.308C348.001 68.62 348.547 68.776 349.219 68.776C349.843 68.776 350.335 68.638 350.695 68.362C351.055 68.086 351.235 67.738 351.235 67.318C351.235 66.886 351.043 66.568 350.659 66.364C350.275 66.148 349.681 65.938 348.877 65.734C348.145 65.542 347.545 65.35 347.077 65.158C346.621 64.954 346.225 64.66 345.889 64.276C345.565 63.88 345.403 63.364 345.403 62.728C345.403 62.224 345.553 61.762 345.853 61.342C346.153 60.922 346.579 60.592 347.131 60.352C347.683 60.1 348.313 59.974 349.021 59.974C350.113 59.974 350.995 60.25 351.667 60.802C352.339 61.354 352.699 62.11 352.747 63.07H351.109C351.073 62.554 350.863 62.14 350.479 61.828C350.107 61.516 349.603 61.36 348.967 61.36C348.379 61.36 347.911 61.486 347.563 61.738C347.215 61.99 347.041 62.32 347.041 62.728C347.041 63.052 347.143 63.322 347.347 63.538C347.563 63.742 347.827 63.91 348.139 64.042C348.463 64.162 348.907 64.3 349.471 64.456C350.179 64.648 350.755 64.84 351.199 65.032C351.643 65.212 352.021 65.488 352.333 65.86C352.657 66.232 352.825 66.718 352.837 67.318C352.837 67.858 352.687 68.344 352.387 68.776C352.087 69.208 351.661 69.55 351.109 69.802C350.569 70.042 349.945 70.162 349.237 70.162ZM368.409 66.562C368.409 67.138 368.265 67.69 367.977 68.218C367.689 68.734 367.263 69.166 366.699 69.514C366.147 69.862 365.481 70.06 364.701 70.108V71.566H363.729V70.108C362.637 70.012 361.749 69.664 361.065 69.064C360.381 68.452 360.033 67.678 360.021 66.742H361.767C361.815 67.246 362.001 67.684 362.325 68.056C362.661 68.428 363.129 68.662 363.729 68.758V64.258C362.925 64.054 362.277 63.844 361.785 63.628C361.293 63.412 360.873 63.076 360.525 62.62C360.177 62.164 360.003 61.552 360.003 60.784C360.003 59.812 360.339 59.008 361.011 58.372C361.695 57.736 362.601 57.382 363.729 57.31V55.816H364.701V57.31C365.721 57.394 366.543 57.724 367.167 58.3C367.791 58.864 368.151 59.602 368.247 60.514H366.501C366.441 60.094 366.255 59.716 365.943 59.38C365.631 59.032 365.217 58.804 364.701 58.696V63.088C365.493 63.292 366.135 63.502 366.627 63.718C367.131 63.922 367.551 64.252 367.887 64.708C368.235 65.164 368.409 65.782 368.409 66.562ZM361.677 60.694C361.677 61.282 361.851 61.732 362.199 62.044C362.547 62.356 363.057 62.614 363.729 62.818V58.66C363.105 58.72 362.607 58.924 362.235 59.272C361.863 59.608 361.677 60.082 361.677 60.694ZM364.701 68.776C365.349 68.704 365.853 68.47 366.213 68.074C366.585 67.678 366.771 67.204 366.771 66.652C366.771 66.064 366.591 65.614 366.231 65.302C365.871 64.978 365.361 64.72 364.701 64.528V68.776ZM376.359 60.262C376.443 59.158 376.869 58.294 377.637 57.67C378.405 57.046 379.401 56.734 380.625 56.734C381.441 56.734 382.143 56.884 382.731 57.184C383.331 57.472 383.781 57.868 384.081 58.372C384.393 58.876 384.549 59.446 384.549 60.082C384.549 60.826 384.333 61.468 383.901 62.008C383.481 62.548 382.929 62.896 382.245 63.052V63.142C383.025 63.334 383.643 63.712 384.099 64.276C384.555 64.84 384.783 65.578 384.783 66.49C384.783 67.174 384.627 67.792 384.315 68.344C384.003 68.884 383.535 69.31 382.911 69.622C382.287 69.934 381.537 70.09 380.661 70.09C379.389 70.09 378.345 69.76 377.529 69.1C376.713 68.428 376.257 67.48 376.161 66.256H377.745C377.829 66.976 378.123 67.564 378.627 68.02C379.131 68.476 379.803 68.704 380.643 68.704C381.483 68.704 382.119 68.488 382.551 68.056C382.995 67.612 383.217 67.042 383.217 66.346C383.217 65.446 382.917 64.798 382.317 64.402C381.717 64.006 380.811 63.808 379.599 63.808H379.185V62.44H379.617C380.721 62.428 381.555 62.248 382.119 61.9C382.683 61.54 382.965 60.988 382.965 60.244C382.965 59.608 382.755 59.098 382.335 58.714C381.927 58.33 381.339 58.138 380.571 58.138C379.827 58.138 379.227 58.33 378.771 58.714C378.315 59.098 378.045 59.614 377.961 60.262H376.359ZM395.472 58.408H389.154V62.512C389.43 62.128 389.838 61.816 390.378 61.576C390.918 61.324 391.5 61.198 392.124 61.198C393.12 61.198 393.93 61.408 394.554 61.828C395.178 62.236 395.622 62.77 395.886 63.43C396.162 64.078 396.3 64.768 396.3 65.5C396.3 66.364 396.138 67.138 395.814 67.822C395.49 68.506 394.992 69.046 394.32 69.442C393.66 69.838 392.838 70.036 391.854 70.036C390.594 70.036 389.574 69.712 388.794 69.064C388.014 68.416 387.54 67.552 387.372 66.472H388.974C389.13 67.156 389.46 67.69 389.964 68.074C390.468 68.458 391.104 68.65 391.872 68.65C392.82 68.65 393.534 68.368 394.014 67.804C394.494 67.228 394.734 66.472 394.734 65.536C394.734 64.6 394.494 63.88 394.014 63.376C393.534 62.86 392.826 62.602 391.89 62.602C391.254 62.602 390.696 62.758 390.216 63.07C389.748 63.37 389.406 63.784 389.19 64.312H387.642V56.968L395.472 56.968V58.408ZM399.449 70.108C399.137 70.108 398.873 70 398.657 69.784C398.441 69.568 398.333 69.304 398.333 68.992C398.333 68.68 398.441 68.416 398.657 68.2C398.873 67.984 399.137 67.876 399.449 67.876C399.749 67.876 400.001 67.984 400.205 68.2C400.421 68.416 400.529 68.68 400.529 68.992C400.529 69.304 400.421 69.568 400.205 69.784C400.001 70 399.749 70.108 399.449 70.108Z" fill="white"/>
<g filter="url(#filter2_d_166_40406)">
<path d="M165.504 31.364L162.21 44L158.484 44L156.468 35.684L154.38 44H150.654L147.45 31.364H150.744L152.562 40.562L154.812 31.364H158.196L160.356 40.562L162.192 31.364H165.504ZM175.914 41.768L171.198 41.768L170.442 44L167.22 44L171.792 31.364H175.356L179.928 44H176.67L175.914 41.768ZM175.122 39.392L173.556 34.766L172.008 39.392H175.122ZM190.707 35.36C190.479 34.94 190.149 34.622 189.717 34.406C189.297 34.178 188.799 34.064 188.223 34.064C187.227 34.064 186.429 34.394 185.829 35.054C185.229 35.702 184.929 36.572 184.929 37.664C184.929 38.828 185.241 39.74 185.865 40.4C186.501 41.048 187.371 41.372 188.475 41.372C189.231 41.372 189.867 41.18 190.383 40.796C190.911 40.412 191.295 39.86 191.535 39.14H187.629V36.872L194.325 36.872V39.734C194.097 40.502 193.707 41.216 193.155 41.876C192.615 42.536 191.925 43.07 191.085 43.478C190.245 43.886 189.297 44.09 188.241 44.09C186.993 44.09 185.877 43.82 184.893 43.28C183.921 42.728 183.159 41.966 182.607 40.994C182.067 40.022 181.797 38.912 181.797 37.664C181.797 36.416 182.067 35.306 182.607 34.334C183.159 33.35 183.921 32.588 184.893 32.048C185.865 31.496 186.975 31.22 188.223 31.22C189.735 31.22 191.007 31.586 192.039 32.318C193.083 33.05 193.773 34.064 194.109 35.36L190.707 35.36ZM200.108 33.83V36.386H204.23V38.762H200.108V41.534H204.77V44H197.03V31.364H204.77V33.83H200.108ZM214.212 44L211.584 39.23H210.846V44H207.768V31.364H212.934C213.93 31.364 214.776 31.538 215.472 31.886C216.18 32.234 216.708 32.714 217.056 33.326C217.404 33.926 217.578 34.598 217.578 35.342C217.578 36.182 217.338 36.932 216.858 37.592C216.39 38.252 215.694 38.72 214.77 38.996L217.686 44H214.212ZM210.846 37.052H212.754C213.318 37.052 213.738 36.914 214.014 36.638C214.302 36.362 214.446 35.972 214.446 35.468C214.446 34.988 214.302 34.61 214.014 34.334C213.738 34.058 213.318 33.92 212.754 33.92H210.846V37.052ZM242.713 31.364L239.419 44H235.693L233.677 35.684L231.589 44H227.863L224.659 31.364H227.953L229.771 40.562L232.021 31.364H235.405L237.565 40.562L239.401 31.364L242.713 31.364ZM248.335 33.83V36.386H252.457V38.762H248.335V41.534H252.997V44H245.257V31.364L252.997 31.364V33.83H248.335ZM259.073 33.83V36.386H263.195V38.762H259.073V41.534H263.735V44H255.995V31.364L263.735 31.364V33.83H259.073ZM274.059 44L269.811 38.42V44L266.733 44V31.364L269.811 31.364V36.908L274.023 31.364L277.641 31.364L272.745 37.556L277.821 44L274.059 44Z" fill="white"/>
</g>
<g clip-path="url(#clip0_166_40406)">
<path d="M66.1579 52.29C66.1579 55.8462 63.2648 58.7394 59.7086 58.7394C56.1524 58.7394 53.2592 55.8462 53.2592 52.29C53.2592 48.7338 56.1524 45.8405 59.7086 45.8405C61.0214 45.8405 62.2433 46.2358 63.2633 46.9122L67.0035 43.1721C66.9191 43.1104 66.8343 43.0489 66.748 42.9886C64.2115 41.2161 61.6707 40.3203 59.1853 40.3203C58.9577 40.3203 58.7306 40.3278 58.5039 40.3428C55.505 40.5469 52.7112 41.882 50.639 44.1018C48.5616 46.3236 47.418 49.2313 47.418 52.29C47.418 55.5718 48.6967 58.658 51.0186 60.9799C53.3406 63.3019 56.4267 64.5806 59.7085 64.5806C62.9903 64.5806 66.0765 63.3018 68.3984 60.9799C70.7203 58.6579 71.9989 55.5718 71.9989 52.29C71.9989 49.5887 70.908 46.9952 68.9385 44.8828L65.086 48.7352C65.7627 49.7552 66.1579 50.9772 66.1579 52.29Z" fill="white"/>
<path d="M58.7995 51.3788L61.3804 48.7979C60.8747 48.5552 60.3085 48.4189 59.7111 48.4189C57.5765 48.4189 55.8398 50.1557 55.8398 52.2903C55.8398 54.4249 57.5765 56.1616 59.7111 56.1616C61.8457 56.1616 63.5823 54.4249 63.5823 52.2903C63.5823 51.6929 63.4461 51.1267 63.2034 50.6209L60.6226 53.2017L58.7995 51.3788Z" fill="white"/>
<path d="M72.3682 41.4546L70.7642 43.0586C73.2171 45.6557 74.5786 48.8924 74.5786 52.29C74.5786 56.2605 73.0317 59.9939 70.2228 62.8028C67.4139 65.6118 63.6803 67.1587 59.7099 67.1587C55.7395 67.1587 52.006 65.6118 49.197 62.8028C46.388 59.9939 44.8412 56.2604 44.8412 52.29C44.8412 48.5751 46.2317 45.0421 48.7565 42.3418C51.2756 39.643 54.6767 38.0192 58.3324 37.7704C61.6368 37.552 64.9643 38.5959 68.2261 40.8753C68.4378 41.0233 68.6437 41.1758 68.8459 41.331L70.5453 39.6316L70.8174 34.8027C67.5282 32.7045 63.7057 31.5801 59.71 31.5801C54.1782 31.5801 48.9774 33.7343 45.0659 37.6458C41.1542 41.5573 39 46.7581 39 52.2899C39 57.8217 41.1542 63.0225 45.0658 66.934C48.9774 70.8455 54.1781 72.9998 59.7099 72.9998C65.2417 72.9998 70.4425 70.8456 74.354 66.934C78.2655 63.0224 80.4197 57.8217 80.4197 52.2899C80.4197 48.2942 79.2952 44.4716 77.1971 41.1825L72.3682 41.4546Z" fill="white"/>
<path d="M73.1719 38.8273L78.4397 38.5304L82.9992 33.9708L78.0285 29L73.4689 33.5595L73.1719 38.8273Z" fill="white"/>
</g>
<g filter="url(#filter3_bd_166_40406)">
<circle cx="23.6021" cy="23.6021" r="23.6021" transform="matrix(-0.707107 0.707107 0.707107 0.707107 517.379 18)" fill="#0E063D" fill-opacity="0.6" shape-rendering="crispEdges"/>
<circle cx="23.6021" cy="23.6021" r="24.1021" transform="matrix(-0.707107 0.707107 0.707107 0.707107 517.379 18)" stroke="url(#paint0_linear_166_40406)" stroke-linejoin="round" shape-rendering="crispEdges"/>
</g>
<path d="M512.972 39.096C512.972 37.2613 513.271 35.832 513.868 34.808C514.466 33.7733 515.511 33.256 517.004 33.256C518.487 33.256 519.527 33.7733 520.124 34.808C520.722 35.832 521.02 37.2613 521.02 39.096C521.02 40.9627 520.722 42.4133 520.124 43.448C519.527 44.4827 518.487 45 517.004 45C515.511 45 514.466 44.4827 513.868 43.448C513.271 42.4133 512.972 40.9627 512.972 39.096ZM519.58 39.096C519.58 38.168 519.516 37.384 519.388 36.744C519.271 36.0933 519.02 35.5707 518.636 35.176C518.263 34.7813 517.719 34.584 517.004 34.584C516.279 34.584 515.724 34.7813 515.34 35.176C514.967 35.5707 514.716 36.0933 514.588 36.744C514.471 37.384 514.412 38.168 514.412 39.096C514.412 40.056 514.471 40.8613 514.588 41.512C514.716 42.1627 514.967 42.6853 515.34 43.08C515.724 43.4747 516.279 43.672 517.004 43.672C517.719 43.672 518.263 43.4747 518.636 43.08C519.02 42.6853 519.271 42.1627 519.388 41.512C519.516 40.8613 519.58 40.056 519.58 39.096Z" fill="white"/>
<path d="M508.65 58.344C508.724 57.3627 509.103 56.5947 509.786 56.04C510.468 55.4853 511.354 55.208 512.442 55.208C513.167 55.208 513.791 55.3413 514.314 55.608C514.847 55.864 515.247 56.216 515.514 56.664C515.791 57.112 515.93 57.6187 515.93 58.184C515.93 58.8453 515.738 59.416 515.354 59.896C514.98 60.376 514.49 60.6853 513.882 60.824V60.904C514.575 61.0747 515.124 61.4107 515.53 61.912C515.935 62.4133 516.138 63.0693 516.138 63.88C516.138 64.488 515.999 65.0373 515.722 65.528C515.444 66.008 515.028 66.3867 514.474 66.664C513.919 66.9413 513.252 67.08 512.474 67.08C511.343 67.08 510.415 66.7867 509.69 66.2C508.964 65.6027 508.559 64.76 508.474 63.672H509.882C509.956 64.312 510.218 64.8347 510.666 65.24C511.114 65.6453 511.711 65.848 512.458 65.848C513.204 65.848 513.77 65.656 514.154 65.272C514.548 64.8773 514.746 64.3707 514.746 63.752C514.746 62.952 514.479 62.376 513.946 62.024C513.412 61.672 512.607 61.496 511.53 61.496H511.162V60.28H511.546C512.527 60.2693 513.268 60.1093 513.77 59.8C514.271 59.48 514.522 58.9893 514.522 58.328C514.522 57.7627 514.335 57.3093 513.962 56.968C513.599 56.6267 513.076 56.456 512.394 56.456C511.732 56.456 511.199 56.6267 510.794 56.968C510.388 57.3093 510.148 57.768 510.074 58.344H508.65ZM525.639 56.696H520.023V60.344C520.269 60.0027 520.631 59.7253 521.111 59.512C521.591 59.288 522.109 59.176 522.663 59.176C523.549 59.176 524.269 59.3627 524.823 59.736C525.378 60.0987 525.773 60.5733 526.007 61.16C526.253 61.736 526.375 62.3493 526.375 63C526.375 63.768 526.231 64.456 525.943 65.064C525.655 65.672 525.213 66.152 524.615 66.504C524.029 66.856 523.298 67.032 522.423 67.032C521.303 67.032 520.397 66.744 519.703 66.168C519.01 65.592 518.589 64.824 518.439 63.864H519.863C520.002 64.472 520.295 64.9467 520.743 65.288C521.191 65.6293 521.757 65.8 522.439 65.8C523.282 65.8 523.917 65.5493 524.343 65.048C524.77 64.536 524.983 63.864 524.983 63.032C524.983 62.2 524.77 61.56 524.343 61.112C523.917 60.6533 523.287 60.424 522.455 60.424C521.89 60.424 521.394 60.5627 520.967 60.84C520.551 61.1067 520.247 61.4747 520.055 61.944H518.679V55.416H525.639V56.696Z" fill="white"/>
<path d="M511.004 50.5H524.004" stroke="white" stroke-opacity="0.8"/>
<defs>
<filter id="filter0_bd_166_40406" x="-91" y="-91" width="751" height="285" filterUnits="userSpaceOnUse" color-interpolation-filters="sRGB">
<feFlood flood-opacity="0" result="BackgroundImageFix"/>
<feGaussianBlur in="BackgroundImageFix" stdDeviation="50"/>
<feComposite in2="SourceAlpha" operator="in" result="effect1_backgroundBlur_166_40406"/>
<feColorMatrix in="SourceAlpha" type="matrix" values="0 0 0 0 0 0 0 0 0 0 0 0 0 0 0 0 0 0 127 0" result="hardAlpha"/>
<feOffset dx="1" dy="1"/>
<feGaussianBlur stdDeviation="5"/>
<feComposite in2="hardAlpha" operator="out"/>
<feColorMatrix type="matrix" values="0 0 0 0 1 0 0 0 0 0.00416666 0 0 0 0 0.243167 0 0 0 0.18 0"/>
<feBlend mode="normal" in2="effect1_backgroundBlur_166_40406" result="effect2_dropShadow_166_40406"/>
<feBlend mode="normal" in="SourceGraphic" in2="effect2_dropShadow_166_40406" result="shape"/>
</filter>
<filter id="filter1_bd_166_40406" x="-91" y="-91" width="304" height="285" filterUnits="userSpaceOnUse" color-interpolation-filters="sRGB">
<feFlood flood-opacity="0" result="BackgroundImageFix"/>
<feGaussianBlur in="BackgroundImageFix" stdDeviation="50"/>
<feComposite in2="SourceAlpha" operator="in" result="effect1_backgroundBlur_166_40406"/>
<feColorMatrix in="SourceAlpha" type="matrix" values="0 0 0 0 0 0 0 0 0 0 0 0 0 0 0 0 0 0 127 0" result="hardAlpha"/>
<feOffset dx="1" dy="1"/>
<feGaussianBlur stdDeviation="5"/>
<feComposite in2="hardAlpha" operator="out"/>
<feColorMatrix type="matrix" values="0 0 0 0 1 0 0 0 0 0.00416666 0 0 0 0 0.243167 0 0 0 0.18 0"/>
<feBlend mode="normal" in2="effect1_backgroundBlur_166_40406" result="effect2_dropShadow_166_40406"/>
<feBlend mode="normal" in="SourceGraphic" in2="effect2_dropShadow_166_40406" result="shape"/>
</filter>
<filter id="filter2_d_166_40406" x="144.449" y="29.2197" width="138.371" height="20.8701" filterUnits="userSpaceOnUse" color-interpolation-filters="sRGB">
<feFlood flood-opacity="0" result="BackgroundImageFix"/>
<feColorMatrix in="SourceAlpha" type="matrix" values="0 0 0 0 0 0 0 0 0 0 0 0 0 0 0 0 0 0 127 0" result="hardAlpha"/>
<feOffset dx="1" dy="2"/>
<feGaussianBlur stdDeviation="2"/>
<feComposite in2="hardAlpha" operator="out"/>
<feColorMatrix type="matrix" values="0 0 0 0 0.6875 0 0 0 0 0.6875 0 0 0 0 0.6875 0 0 0 0.18 0"/>
<feBlend mode="normal" in2="BackgroundImageFix" result="effect1_dropShadow_166_40406"/>
<feBlend mode="normal" in="SourceGraphic" in2="effect1_dropShadow_166_40406" result="shape"/>
</filter>
<filter id="filter3_bd_166_40406" x="392.777" y="-73.2236" width="249.203" height="249.204" filterUnits="userSpaceOnUse" color-interpolation-filters="sRGB">
<feFlood flood-opacity="0" result="BackgroundImageFix"/>
<feGaussianBlur in="BackgroundImageFix" stdDeviation="50"/>
<feComposite in2="SourceAlpha" operator="in" result="effect1_backgroundBlur_166_40406"/>
<feColorMatrix in="SourceAlpha" type="matrix" values="0 0 0 0 0 0 0 0 0 0 0 0 0 0 0 0 0 0 127 0" result="hardAlpha"/>
<feOffset dx="1" dy="1"/>
<feGaussianBlur stdDeviation="5"/>
<feComposite in2="hardAlpha" operator="out"/>
<feColorMatrix type="matrix" values="0 0 0 0 1 0 0 0 0 0.00416666 0 0 0 0 0.243167 0 0 0 0.18 0"/>
<feBlend mode="normal" in2="effect1_backgroundBlur_166_40406" result="effect2_dropShadow_166_40406"/>
<feBlend mode="normal" in="SourceGraphic" in2="effect2_dropShadow_166_40406" result="shape"/>
</filter>
<linearGradient id="paint0_linear_166_40406" x1="46.7546" y1="0.452149" x2="-6.26715" y2="36.2936" gradientUnits="userSpaceOnUse">
<stop offset="0.15625" stop-color="#FF6B2C"/>
<stop offset="0.473958" stop-color="#BF4B5A"/>
<stop offset="0.953125" stop-color="#B102CD"/>
</linearGradient>
<clipPath id="clip0_166_40406">
<rect width="44" height="44" fill="white" transform="translate(39 29)"/>
</clipPath>
</defs>
</svg>
